<?xml version="1.0" encoding="utf-8"?>
<!-- Generator: Adobe Illustrator 26.2.1, SVG Export Plug-In . SVG Version: 6.00 Build 0)  -->
<svg version="1.1" id="Layer_1" xmlns="http://www.w3.org/2000/svg" xmlns:xlink="http://www.w3.org/1999/xlink" x="0px" y="0px"
	 viewBox="0 0 595.28 841.89" style="enable-background:new 0 0 595.28 841.89;" xml:space="preserve">
<style type="text/css">
	.st0{fill:none;stroke:#E4142B;stroke-width:15.4412;stroke-linecap:round;stroke-linejoin:round;stroke-miterlimit:10;}
	.st1{fill:none;stroke:#3D3D3B;stroke-width:15.4412;stroke-linecap:round;stroke-linejoin:round;stroke-miterlimit:10;}
</style>
<path class="st0" d="M202.68,487.37h-24.76c-2.56,0-4.63-2.07-4.63-4.63v-51.16c0-2.56,2.07-4.63,4.63-4.63h24.76
	c2.56,0,4.63,2.07,4.63,4.63v51.16C207.31,485.29,205.24,487.37,202.68,487.37z"/>
<path class="st0" d="M266.48,487.37h-24.76c-2.56,0-4.63-2.07-4.63-4.63V371.14c0-2.56,2.07-4.63,4.63-4.63h24.76
	c2.56,0,4.63,2.07,4.63,4.63v111.59C271.12,485.29,269.04,487.37,266.48,487.37z"/>
<path class="st0" d="M330.29,487.37h-24.76c-2.56,0-4.63-2.07-4.63-4.63v-83.7c0-2.56,2.07-4.63,4.63-4.63h24.76
	c2.56,0,4.63,2.07,4.63,4.63v83.7C334.92,485.29,332.85,487.37,330.29,487.37z"/>
<path class="st0" d="M394.09,487.37h-24.76c-2.56,0-4.63-2.07-4.63-4.63V338.6c0-2.56,2.07-4.63,4.63-4.63h24.76
	c2.56,0,4.63,2.07,4.63,4.63v144.13C398.73,485.29,396.65,487.37,394.09,487.37z"/>
<path class="st1" d="M115.56,543.77C90.33,508.35,75.49,465,75.49,418.19c0-119.68,97.02-216.69,216.69-216.69
	c48.37,0,95.18,13.47,131.27,40.2"/>
<path class="st1" d="M465.67,288.33c27.13,36.19,43.21,81.15,43.21,129.87c0,119.68-97.02,216.69-216.69,216.69
	c-48.56,0-94.52-14.41-130.65-41.39"/>
<polyline class="st1" points="349.25,252.93 423.71,241.7 389.08,173.99 "/>
<polyline class="st1" points="238.7,580.82 161.53,593.51 200.94,668.11 "/>
<path class="st1" d="M292.18,594.22c97.22,0,176.03-78.81,176.03-176.03c0-47.28-18.64-90.21-48.97-121.83"/>
<path class="st1" d="M292.18,242.16c-97.22,0-176.03,78.81-176.03,176.03c0,42.28,14.91,81.09,39.76,111.44"/>
</svg>
