<?xml version="1.0" encoding="utf-8"?>
<!-- Generator: Adobe Illustrator 26.2.1, SVG Export Plug-In . SVG Version: 6.00 Build 0)  -->
<svg version="1.1" id="Layer_1" xmlns="http://www.w3.org/2000/svg" xmlns:xlink="http://www.w3.org/1999/xlink" x="0px" y="0px"
	 viewBox="0 0 595.28 841.89" style="enable-background:new 0 0 595.28 841.89;" xml:space="preserve">
<style type="text/css">
	.st0{fill:none;stroke:#E4142B;stroke-width:15.4412;stroke-linecap:round;stroke-linejoin:round;stroke-miterlimit:10;}
	.st1{fill:none;stroke:#3D3D3B;stroke-width:15.4412;stroke-linecap:round;stroke-linejoin:round;stroke-miterlimit:10;}
</style>
<path class="st0" d="M161.44,500.11c-61.22,0-110.86-27.57-110.86-61.59v-36.95"/>
<path class="st0" d="M164.82,465.59c-1.12,0.02-2.25,0.03-3.38,0.03c-61.22,0-110.86-27.57-110.86-61.59v-36.95"/>
<line class="st0" x1="272.29" y1="367.08" x2="272.29" y2="412.35"/>
<path class="st0" d="M272.29,332.59v36.95c0,34.01-49.63,61.59-110.86,61.59S50.58,403.56,50.58,369.55v-36.95"/>
<path class="st0" d="M272.29,298.11v36.95c0,34.01-49.63,61.59-110.86,61.59S50.58,369.07,50.58,335.06v-36.95"/>
<ellipse class="st0" cx="161.44" cy="300.57" rx="110.86" ry="61.59"/>
<line class="st0" x1="272.29" y1="412.35" x2="272.29" y2="367.08"/>
<path class="st1" d="M384.53,509.29v36.95c0,34.01-49.63,61.59-110.86,61.59c-61.22,0-110.86-27.57-110.86-61.59v-36.95"/>
<path class="st1" d="M384.53,474.8v36.95c0,34.01-49.63,61.59-110.86,61.59c-61.22,0-110.86-27.57-110.86-61.59V474.8"/>
<ellipse class="st1" cx="273.68" cy="477.26" rx="110.86" ry="61.59"/>
<path class="st1" d="M259.28,502.64c8.05,3.88,21.29,4.77,33.67,1.74c16.2-3.97,24.8-13.16,19.21-20.52
	c-7.59-10-22.96-8.87-39.45-6.15c-21.35,3.52-33.86,1.22-39.45-6.14c-5.59-7.36,3.01-16.55,19.21-20.52
	c12.05-2.95,24.92-2.19,33.01,1.43"/>
<line class="st1" x1="246.57" y1="443.28" x2="298.86" y2="512.16"/>
<path class="st0" d="M148.04,325.26c8.04,3.88,21.29,4.77,33.67,1.74c16.2-3.97,24.8-13.16,19.21-20.52
	c-7.59-10-22.96-8.87-39.45-6.14c-21.35,3.52-33.86,1.22-39.45-6.14c-5.59-7.36,3.01-16.55,19.21-20.52
	c12.05-2.95,24.92-2.19,33.01,1.43"/>
<line class="st0" x1="135.33" y1="265.9" x2="187.61" y2="334.78"/>
<path class="st1" d="M282.92,261.87c27.67-28.85,66.61-46.81,109.74-46.81c83.97,0,152.04,68.07,152.04,152.04
	c0,79.32-60.75,144.46-138.26,151.42"/>
<path class="st1" d="M442.78,254.88c19.86,26.42,32.56,66.87,32.56,112.22c0,46.24-13.21,87.4-33.75,113.77"/>
<path class="st1" d="M311.29,392.21c-0.87-8.16-1.32-16.55-1.32-25.11c0-45.35,12.7-85.8,32.56-112.22"/>
<line class="st1" x1="392.66" y1="241.89" x2="392.66" y2="430.54"/>
<line class="st1" x1="300.1" y1="367.1" x2="517.87" y2="367.1"/>
<line class="st1" x1="298.24" y1="284.41" x2="487.07" y2="284.41"/>
<line class="st1" x1="404.49" y1="449.78" x2="487.07" y2="449.78"/>
</svg>
