<?xml version="1.0" encoding="utf-8"?>
<!-- Generator: Adobe Illustrator 26.2.1, SVG Export Plug-In . SVG Version: 6.00 Build 0)  -->
<svg version="1.1" id="Layer_1" xmlns="http://www.w3.org/2000/svg" xmlns:xlink="http://www.w3.org/1999/xlink" x="0px" y="0px"
	 viewBox="0 0 595.28 841.89" style="enable-background:new 0 0 595.28 841.89;" xml:space="preserve">
<style type="text/css">
	.st0{fill:none;stroke:#E4142B;stroke-width:15.4412;stroke-linecap:round;stroke-linejoin:round;stroke-miterlimit:10;}
	.st1{fill:none;stroke:#3D3D3B;stroke-width:15.4412;stroke-linecap:round;stroke-linejoin:round;stroke-miterlimit:10;}
</style>
<line class="st0" x1="302.04" y1="300.27" x2="358.22" y2="300.27"/>
<path class="st1" d="M355.4,658.5H91.83c-11.7,0-21.18-9.48-21.18-21.18V240.95c0-5.62,2.23-11,6.2-14.98l55.39-55.39
	c3.97-3.97,9.36-6.2,14.98-6.2h251.42c11.7,0,21.18,9.48,21.18,21.18v99.38"/>
<line class="st0" x1="302.04" y1="362.04" x2="323.18" y2="362.04"/>
<path class="st1" d="M75.38,232.18h58.95c4.97,0,8.99-4.03,8.99-8.99v-58.44"/>
<line class="st0" x1="302.04" y1="331.15" x2="358.22" y2="331.15"/>
<line class="st1" x1="265.68" y1="300.27" x2="270.98" y2="300.27"/>
<line class="st1" x1="265.68" y1="362.04" x2="270.98" y2="362.04"/>
<line class="st1" x1="265.68" y1="331.15" x2="270.98" y2="331.15"/>
<polyline class="st0" points="192.14,622.85 192.14,509.06 249.29,509.06 249.29,622.85 "/>
<polyline class="st0" points="249.29,622.85 249.29,422.24 306.43,422.24 306.43,622.85 "/>
<polyline class="st0" points="134.67,622.85 134.67,566.5 191.82,566.5 191.82,622.85 "/>
<ellipse transform="matrix(0.9732 -0.2298 0.2298 0.9732 -71.4942 48.2836)" class="st1" cx="171.6" cy="331.16" rx="56.07" ry="56.07"/>
<polyline class="st1" points="171.6,275.09 171.6,331.16 227.66,331.16 "/>
<g>
	<path class="st1" d="M432.07,419.58c-26.84,0-48.6-21.75-48.6-48.6c0-26.83,21.76-48.6,48.6-48.6c26.84,0,48.6,21.77,48.6,48.6
		C480.67,397.83,458.91,419.58,432.07,419.58z"/>
</g>
<path class="st1" d="M470.72,658.5v-25.35v-72.54c0-0.01,0-0.01,0-0.02v-68.21"/>
<path class="st1" d="M393.41,492.38c0,28.83,0,68.21,0,68.21c0,0.01,0,0.02,0,0.02v72.54v25.35"/>
<path class="st1" d="M393.2,558.65c0,10.01-7.95,18.13-17.76,18.13c-9.8,0-16.24-8.12-16.24-18.13v-62.64
	c0-29.16,23.64-52.8,52.8-52.8h40.13c29.16,0,52.8,23.64,52.8,52.8v62.64c0,10.01-6.43,18.13-16.24,18.13
	c-9.81,0-17.76-8.12-17.76-18.13"/>
<line class="st1" x1="432.07" y1="658.5" x2="432.07" y2="576.64"/>
</svg>
