<?xml version="1.0" encoding="utf-8"?>
<!-- Generator: Adobe Illustrator 26.2.1, SVG Export Plug-In . SVG Version: 6.00 Build 0)  -->
<svg version="1.1" id="Layer_1" xmlns="http://www.w3.org/2000/svg" xmlns:xlink="http://www.w3.org/1999/xlink" x="0px" y="0px"
	 viewBox="0 0 595.28 841.89" style="enable-background:new 0 0 595.28 841.89;" xml:space="preserve">
<style type="text/css">
	.st0{fill:none;stroke:#3D3D3B;stroke-width:15.4412;stroke-linecap:round;stroke-linejoin:round;stroke-miterlimit:10;}
	.st1{fill:none;stroke:#E4142B;stroke-width:15.4412;stroke-linecap:round;stroke-linejoin:round;stroke-miterlimit:10;}
</style>
<path class="st0" d="M528.41,413.64v148.7c0,12.03-9.75,21.78-21.78,21.78H331.51"/>
<path class="st0" d="M405.78,338.87v-27.76c0-13.19-10.69-23.88-23.88-23.88h-68.42c-13.19,0-23.88,10.69-23.88,23.88v27.76"/>
<path class="st0" d="M358.96,500.22h-22.53c-4.47,0-8.1-3.63-8.1-8.1v-41.89c0-4.47,3.63-8.1,8.1-8.1h22.53c4.47,0,8.1,3.63,8.1,8.1
	v41.89C367.06,496.6,363.43,500.22,358.96,500.22z"/>
<line class="st0" x1="305" y1="553.99" x2="527.89" y2="553.99"/>
<path class="st0" d="M312.1,610.32l-48.65-48.65c10.17-16.56,16.14-35.97,16.14-56.83c0-60.12-48.73-108.85-108.85-108.85
	c-60.12,0-108.85,48.74-108.85,108.85S110.62,613.7,170.74,613.7c18.76,0,36.4-4.75,51.81-13.1l49.64,49.64
	c11.02,11.02,28.89,11.02,39.91,0C323.12,639.21,323.12,621.35,312.1,610.32z"/>
<path class="st0" d="M140.63,540.27c4.75,9.58,16.44,16.36,30.1,16.36c17.88,0,32.37-11.59,32.37-25.89
	c0-19.42-15.11-23.74-32.37-25.89c-22.35-2.79-32.37-11.59-32.37-25.89c0-14.3,14.49-25.89,32.37-25.89
	c13.3,0,24.73,6.42,29.71,15.6"/>
<line class="st0" x1="170.74" y1="437.95" x2="170.74" y2="571.74"/>
<line class="st0" x1="328.33" y1="467.95" x2="307.75" y2="467.95"/>
<path class="st0" d="M176.52,365.04c9.46-15.68,26.66-26.17,46.31-26.17h251.52c29.85,0,54.05,24.2,54.05,54.05v44.37
	c0,16.93-13.73,30.66-30.66,30.66H367.06"/>
<line class="st1" x1="168.04" y1="252.12" x2="345.01" y2="252.12"/>
<path class="st1" d="M126.03,372.14v-148.7c0-0.77,0.3-1.5,0.85-2.04l56.17-56.17c0.54-0.54,1.28-0.85,2.04-0.85h181.27
	c11.41,0,20.66,9.25,20.66,20.66v70.47"/>
<path class="st1" d="M126.03,222.25h45.15c7.08,0,12.82-5.74,12.82-12.82v-45.04"/>
<line class="st1" x1="168.04" y1="296.71" x2="257.53" y2="296.71"/>
</svg>
