<?xml version="1.0" encoding="utf-8"?>
<!-- Generator: Adobe Illustrator 26.2.1, SVG Export Plug-In . SVG Version: 6.00 Build 0)  -->
<svg version="1.1" id="Layer_1" xmlns="http://www.w3.org/2000/svg" xmlns:xlink="http://www.w3.org/1999/xlink" x="0px" y="0px"
	 viewBox="0 0 595.28 841.89" style="enable-background:new 0 0 595.28 841.89;" xml:space="preserve">
<style type="text/css">
	.st0{fill:none;stroke:#3D3D3B;stroke-width:15.4412;stroke-linecap:round;stroke-linejoin:round;stroke-miterlimit:10;}
	.st1{fill:none;stroke:#141414;stroke-width:15.4412;stroke-linecap:round;stroke-linejoin:round;stroke-miterlimit:10;}
	.st2{fill:none;stroke:#E4142B;stroke-width:15.4412;stroke-linecap:round;stroke-linejoin:round;stroke-miterlimit:10;}
</style>
<path class="st0" d="M201.25,531.71h-26.21c-3.7,0-6.7,3-6.7,6.7v38.3"/>
<line class="st0" x1="145.31" y1="409.21" x2="81.44" y2="409.21"/>
<path class="st0" d="M168.34,576.71c8.22,0,14.89,6.66,14.89,14.89c0,8.22-6.67,14.89-14.89,14.89c-8.22,0-14.89-6.66-14.89-14.89
	C153.45,583.38,160.12,576.71,168.34,576.71z"/>
<path class="st0" d="M158.11,473.2h-20.37c-3.7,0-6.7,3-6.7,6.7v15.85c0,3.7-3,6.7-6.7,6.7H103.6"/>
<path class="st0" d="M87.41,487.57c8.22,0,14.89,6.67,14.89,14.89c0,8.22-6.67,14.89-14.89,14.89s-14.89-6.67-14.89-14.89
	C72.52,494.23,79.19,487.57,87.41,487.57z"/>
<path class="st0" d="M201.25,288.53h-26.21c-3.7,0-6.7-3-6.7-6.7v-32.12"/>
<ellipse transform="matrix(0.9732 -0.2298 0.2298 0.9732 -92.2648 25.9877)" class="st0" cx="65.47" cy="409.21" rx="14.89" ry="14.89"/>
<path class="st0" d="M168.34,249.7c8.22,0,14.89-6.66,14.89-14.89c0-8.22-6.67-14.89-14.89-14.89c-8.22,0-14.89,6.66-14.89,14.89
	C153.45,243.04,160.12,249.7,168.34,249.7z"/>
<path class="st0" d="M158.11,347.04h-20.37c-3.7,0-6.7-3-6.7-6.7v-15.85c0-3.7-3-6.7-6.7-6.7H103.6"/>
<path class="st0" d="M87.41,332.67c8.22,0,14.89-6.67,14.89-14.89c0-8.22-6.67-14.89-14.89-14.89s-14.89,6.66-14.89,14.89
	C72.52,326.01,79.19,332.67,87.41,332.67z"/>
<path class="st0" d="M394.03,288.53h26.21c3.7,0,6.7-3,6.7-6.7v-32.12"/>
<line class="st0" x1="449.97" y1="411.03" x2="513.84" y2="411.03"/>
<path class="st0" d="M426.94,249.7c-8.22,0-14.89-6.66-14.89-14.89c0-8.22,6.67-14.89,14.89-14.89c8.22,0,14.89,6.66,14.89,14.89
	C441.83,243.04,435.16,249.7,426.94,249.7z"/>
<path class="st0" d="M437.17,347.04h20.37c3.7,0,6.7-3,6.7-6.7v-15.85c0-3.7,3-6.7,6.7-6.7h20.72"/>
<path class="st0" d="M507.87,332.67c-8.22,0-14.89-6.67-14.89-14.89c0-8.22,6.67-14.89,14.89-14.89c8.22,0,14.89,6.66,14.89,14.89
	C522.76,326.01,516.09,332.67,507.87,332.67z"/>
<path class="st0" d="M394.03,531.71h26.21c3.7,0,6.7,3,6.7,6.7v38.3"/>
<circle class="st0" cx="529.81" cy="411.03" r="14.89"/>
<path class="st0" d="M426.94,576.71c-8.22,0-14.89,6.66-14.89,14.89c0,8.22,6.67,14.89,14.89,14.89c8.22,0,14.89-6.66,14.89-14.89
	C441.83,583.38,435.16,576.71,426.94,576.71z"/>
<path class="st0" d="M437.17,473.2h20.37c3.7,0,6.7,3,6.7,6.7v15.85c0,3.7,3,6.7,6.7,6.7h20.72"/>
<path class="st0" d="M507.87,487.57c-8.22,0-14.89,6.67-14.89,14.89c0,8.22,6.67,14.89,14.89,14.89c8.22,0,14.89-6.67,14.89-14.89
	C522.76,494.23,516.09,487.57,507.87,487.57z"/>
<path class="st0" d="M324.98,563.21v20.37c0,3.7,3,6.7,6.7,6.7h15.85c3.7,0,6.7,3,6.7,6.7v20.72"/>
<path class="st0" d="M339.35,633.91c0-8.22,6.67-14.89,14.89-14.89c8.22,0,14.89,6.66,14.89,14.89c0,8.22-6.67,14.89-14.89,14.89
	C346.01,648.79,339.35,642.13,339.35,633.91z"/>
<path class="st0" d="M270.3,563.21v20.37c0,3.7-3,6.7-6.7,6.7h-15.85c-3.7,0-6.7,3-6.7,6.7v20.72"/>
<path class="st0" d="M255.93,633.91c0-8.22-6.66-14.89-14.89-14.89c-8.22,0-14.89,6.66-14.89,14.89c0,8.22,6.67,14.89,14.89,14.89
	C249.26,648.79,255.93,642.13,255.93,633.91z"/>
<path class="st0" d="M270.3,259.68V239.3c0-3.7-3-6.7-6.7-6.7h-15.85c-3.7,0-6.7-3-6.7-6.7v-20.72"/>
<path class="st0" d="M255.93,188.98c0,8.22-6.66,14.89-14.89,14.89c-8.22,0-14.89-6.66-14.89-14.89c0-8.22,6.67-14.89,14.89-14.89
	C249.26,174.09,255.93,180.75,255.93,188.98z"/>
<path class="st0" d="M324.98,259.68V239.3c0-3.7,3-6.7,6.7-6.7h15.85c3.7,0,6.7-3,6.7-6.7v-20.72"/>
<path class="st0" d="M339.35,188.98c0,8.22,6.67,14.89,14.89,14.89c8.22,0,14.89-6.66,14.89-14.89c0-8.22-6.67-14.89-14.89-14.89
	C346.01,174.09,339.35,180.75,339.35,188.98z"/>
<ellipse transform="matrix(0.7071 -0.7071 0.7071 0.7071 -202.6164 330.5002)" class="st1" cx="297.64" cy="409.83" rx="121.3" ry="121.3"/>
<path class="st2" d="M361.57,389.17v-11.21c0-13.86-11.24-25.1-25.1-25.1l0,0c-13.86,0-25.1,11.24-25.1,25.1v63.09
	c0,13.86,11.24,25.1,25.1,25.1l0,0c13.86,0,25.1-11.24,25.1-25.1v-24.6h-17.31"/>
<path class="st2" d="M276.21,352.39h-42.5l0,59.04c0-13.08,10.6-23.68,23.68-23.68l0,0c13.08,0,23.68,10.6,23.68,23.68v31.03
	c0,13.08-10.6,23.68-23.68,23.68l0,0c-13.08,0-23.68-10.6-23.68-23.68"/>
</svg>
