<?xml version="1.0" encoding="utf-8"?>
<!-- Generator: Adobe Illustrator 26.2.1, SVG Export Plug-In . SVG Version: 6.00 Build 0)  -->
<svg version="1.1" id="Layer_1" xmlns="http://www.w3.org/2000/svg" xmlns:xlink="http://www.w3.org/1999/xlink" x="0px" y="0px"
	 viewBox="0 0 595.28 841.89" style="enable-background:new 0 0 595.28 841.89;" xml:space="preserve">
<style type="text/css">
	.st0{fill:none;stroke:#E4142B;stroke-width:15.4412;stroke-linecap:round;stroke-linejoin:round;stroke-miterlimit:10;}
	.st1{fill:none;stroke:#3D3D3B;stroke-width:15.4412;stroke-linecap:round;stroke-linejoin:round;stroke-miterlimit:10;}
	
		.st2{fill:none;stroke:#3D3D3B;stroke-width:15.4412;stroke-linecap:round;stroke-linejoin:round;stroke-miterlimit:10;stroke-dasharray:4.137,49.4118;}
</style>
<path class="st0" d="M232.65,549.53l125.66-125.66c26.27,7,55.44,0.27,76.05-20.34c23.17-23.17,28.87-57.18,17.14-85.7l-43.07,43.07
	l-40.13-2.73l-2.73-40.13l43.07-43.07c-28.52-11.73-62.53-6.03-85.7,17.14c-20.61,20.61-27.34,49.77-20.34,76.05L176.95,493.82
	c-15.38,15.38-15.38,40.32,0,55.71C192.33,564.91,217.27,564.91,232.65,549.53z"/>
<line class="st0" x1="207.14" y1="519.35" x2="212.15" y2="514.34"/>
<line class="st0" x1="384.79" y1="540.48" x2="364.38" y2="520.15"/>
<line class="st0" x1="331.74" y1="564.78" x2="322.45" y2="542.54"/>
<line class="st0" x1="408.88" y1="487.11" x2="386.59" y2="477.95"/>
<line class="st0" x1="186" y1="341.69" x2="206.32" y2="362.1"/>
<line class="st0" x1="161.7" y1="394.74" x2="183.94" y2="404.03"/>
<line class="st0" x1="239.37" y1="317.6" x2="248.53" y2="339.89"/>
<path class="st1" d="M223.84,651.34c99.89,34.13,214.43,1.19,279.71-88.68c80.18-110.39,55.69-264.88-54.71-345.06
	c-110.39-80.18-264.88-55.69-345.06,54.71c-0.93,1.29-1.85,2.58-2.76,3.87"/>
<polyline class="st1" points="185.31,270.85 100.3,277.25 95.26,192.15 "/>
<path class="st2" d="M64.79,354.24c-25.32,95.74,8.76,201.43,93.7,263.12"/>
</svg>
