<?xml version="1.0" encoding="utf-8"?>
<!-- Generator: Adobe Illustrator 26.2.1, SVG Export Plug-In . SVG Version: 6.00 Build 0)  -->
<svg version="1.1" id="Layer_1" xmlns="http://www.w3.org/2000/svg" xmlns:xlink="http://www.w3.org/1999/xlink" x="0px" y="0px"
	 viewBox="0 0 595.28 841.89" style="enable-background:new 0 0 595.28 841.89;" xml:space="preserve">
<style type="text/css">
	.st0{fill:none;stroke:#3D3D3B;stroke-width:15.4412;stroke-linecap:round;stroke-linejoin:round;stroke-miterlimit:10;}
	.st1{fill:none;stroke:#E4142B;stroke-width:15.4412;stroke-linecap:round;stroke-linejoin:round;stroke-miterlimit:10;}
</style>
<polyline class="st0" points="78.72,238.96 78.72,557.38 544.7,557.38 "/>
<line class="st1" x1="498.11" y1="267.05" x2="123.44" y2="429.68"/>
<polyline class="st1" points="481.61,312.76 499.97,266.24 453.44,247.88 "/>
<line class="st0" x1="164.96" y1="497.68" x2="164.96" y2="451.24"/>
<line class="st0" x1="204.77" y1="497.68" x2="204.77" y2="437.98"/>
<line class="st0" x1="244.57" y1="497.68" x2="244.57" y2="424.71"/>
<line class="st0" x1="284.37" y1="497.68" x2="284.37" y2="404.81"/>
<line class="st0" x1="324.17" y1="497.68" x2="324.17" y2="391.54"/>
<line class="st0" x1="363.98" y1="497.68" x2="363.98" y2="371.64"/>
<line class="st0" x1="403.78" y1="497.68" x2="403.78" y2="358.37"/>
<line class="st0" x1="443.58" y1="497.68" x2="443.58" y2="338.47"/>
<polyline class="st0" points="106.87,265.5 78.72,237.35 50.58,265.5 "/>
<polyline class="st0" points="516.55,585.53 544.7,557.38 516.55,529.24 "/>
</svg>
