<?xml version="1.0" encoding="utf-8"?>
<!-- Generator: Adobe Illustrator 26.2.1, SVG Export Plug-In . SVG Version: 6.00 Build 0)  -->
<svg version="1.1" id="Layer_1" xmlns="http://www.w3.org/2000/svg" xmlns:xlink="http://www.w3.org/1999/xlink" x="0px" y="0px"
	 viewBox="0 0 595.28 841.89" style="enable-background:new 0 0 595.28 841.89;" xml:space="preserve">
<style type="text/css">
	.st0{fill:none;stroke:#3D3D3B;stroke-width:15.4412;stroke-linecap:round;stroke-linejoin:round;stroke-miterlimit:10;}
	.st1{fill:none;stroke:#E4142B;stroke-width:15.4412;stroke-linecap:round;stroke-linejoin:round;stroke-miterlimit:10;}
</style>
<polyline class="st0" points="399.14,353.02 466.8,315.09 399.14,277.16 "/>
<line class="st0" x1="196.15" y1="511.84" x2="196.15" y2="420.68"/>
<line class="st1" x1="399.14" y1="202.32" x2="399.14" y2="544.71"/>
<line class="st1" x1="263.81" y1="382.75" x2="263.81" y2="202.32"/>
<line class="st0" x1="263.8" y1="549.76" x2="263.8" y2="620.57"/>
<polyline class="st0" points="128.47,549.76 128.47,620.56 196.14,658.5 "/>
<line class="st1" x1="331.47" y1="240.25" x2="331.47" y2="420.68"/>
<line class="st0" x1="263.8" y1="458.61" x2="263.8" y2="620.57"/>
<polyline class="st0" points="196.14,587.7 196.14,658.5 466.8,506.78 466.8,315.09 "/>
<polygon class="st0" points="196.14,511.83 128.47,549.76 196.14,587.7 263.8,549.76 "/>
<polygon class="st0" points="263.8,382.75 196.14,420.68 263.8,458.61 331.47,420.68 "/>
<polygon class="st1" points="331.47,164.38 263.8,202.32 331.47,240.25 399.14,202.32 "/>
<line class="st0" x1="331.47" y1="420.68" x2="331.47" y2="582.64"/>
</svg>
