<?xml version="1.0" encoding="utf-8"?>
<!-- Generator: Adobe Illustrator 26.2.1, SVG Export Plug-In . SVG Version: 6.00 Build 0)  -->
<svg version="1.1" id="Layer_1" xmlns="http://www.w3.org/2000/svg" xmlns:xlink="http://www.w3.org/1999/xlink" x="0px" y="0px"
	 viewBox="0 0 595.28 841.89" style="enable-background:new 0 0 595.28 841.89;" xml:space="preserve">
<style type="text/css">
	.st0{fill:none;stroke:#E4142B;stroke-width:15.4412;stroke-linecap:round;stroke-linejoin:round;stroke-miterlimit:10;}
	.st1{fill:none;stroke:#3D3D3B;stroke-width:15.4412;stroke-linecap:round;stroke-linejoin:round;stroke-miterlimit:10;}
</style>
<line class="st0" x1="350.73" y1="388.84" x2="406.16" y2="444.27"/>
<line class="st0" x1="310.64" y1="392.42" x2="390.02" y2="471.81"/>
<line class="st0" x1="280.28" y1="405.73" x2="369.28" y2="494.74"/>
<path class="st1" d="M404.3,245.8c5.09-0.55,10.26-0.83,15.5-0.83c79.25,0,143.49,64.24,143.49,143.49S499.05,531.95,419.8,531.95
	c-16.05,0-31.48-2.63-45.89-7.49"/>
<path class="st1" d="M327.72,498.52c-31.43-26.32-51.41-65.85-51.41-110.06c0-55.06,31.01-102.88,76.52-126.94"/>
<path class="st1" d="M456.86,552.4c-17.43,45.57-61.57,77.92-113.26,77.92c-44.31,0-83.07-23.77-104.21-59.26"/>
<path class="st1" d="M222.85,519.94c-0.32-3.57-0.48-7.18-0.48-10.83c0-66.95,54.27-121.22,121.22-121.22
	c63.82,0,116.12,49.32,120.87,111.92"/>
<ellipse transform="matrix(0.7071 -0.7071 0.7071 0.7071 -189.129 282.105)" class="st0" cx="245.97" cy="369.35" rx="176.79" ry="176.79"/>
</svg>
