<?xml version="1.0" encoding="utf-8"?>
<!-- Generator: Adobe Illustrator 26.2.1, SVG Export Plug-In . SVG Version: 6.00 Build 0)  -->
<svg version="1.1" id="Layer_1" xmlns="http://www.w3.org/2000/svg" xmlns:xlink="http://www.w3.org/1999/xlink" x="0px" y="0px"
	 viewBox="0 0 595.28 841.89" style="enable-background:new 0 0 595.28 841.89;" xml:space="preserve">
<style type="text/css">
	.st0{fill:none;stroke:#3D3D3B;stroke-width:15.4412;stroke-linecap:round;stroke-linejoin:round;stroke-miterlimit:10;}
	.st1{fill:none;stroke:#E4142B;stroke-width:15.4412;stroke-linecap:round;stroke-linejoin:round;stroke-miterlimit:10;}
</style>
<path class="st0" d="M358.26,458.56c-7.72,27.95-29.58,55.9-55.36,55.9c-25.87,0-47.81-28.17-55.45-56.23"/>
<line class="st0" x1="248.71" y1="601.77" x2="248.71" y2="658.5"/>
<path class="st0" d="M387.65,658.5c9.2,0,16.66-7.46,16.66-16.66V622.8c0-47.46-21.59-71.46-71.33-81.93l-30.08,20.89l-30.08-20.89
	c-49.74,10.47-71.33,34.47-71.33,81.93v19.04c0,9.2,7.46,16.66,16.66,16.66H387.65z"/>
<line class="st0" x1="357.11" y1="601.77" x2="357.11" y2="658.5"/>
<path class="st0" d="M272.83,540.86c7.49-6.21,7.49-33.32,7.49-33.32"/>
<path class="st0" d="M332.99,540.86c-7.49-6.21-7.49-33.32-7.49-33.32"/>
<path class="st0" d="M301.17,355.32c55.11,0,78.55,20.56,60.99,100.88c-0.7,3.19-5.23,3.32-6.09,0.17
	c-3.23-11.8-7.71-35.71-7.71-35.71c-0.14-2.96-2.69-4.91-5.65-4.94c-19.35-0.21-40.77-12.45-40.77-12.45
	c-2.77-0.56-5.26,1.67-4.7,4.21l8.05,21.58l-35.82-18.94c-3.41-1.78-7.73-1.04-10.2,1.76L249.75,456c-0.83,3.18-5.4,3.1-6.1-0.11
	c-17.47-80.06,5.64-100.56,60.68-100.56"/>
<path class="st0" d="M464,548.21l-5.87,4.08c-8.64,6-20.11,6-28.75,0l-5.87-4.08"/>
<line class="st0" x1="484.65" y1="592.47" x2="484.65" y2="635.27"/>
<path class="st0" d="M484.04,471.29c0,24.72-18.04,57.66-40.29,57.66c-22.25,0-40.28-32.94-40.28-57.66"/>
<path class="st0" d="M397.17,469.84c24.63,0,40.03-23.07,40.03-23.07s21.55,23.07,55.42,23.07"/>
<path class="st0" d="M408.7,562.55c10.53-6.09,19.16-17.43,21.42-37.78"/>
<path class="st0" d="M443.75,415.7c-27.83-20.45-81.77,11.49-54.54,102.26c2.71,9.03,1.83,16.63-0.93,22.91"/>
<path class="st0" d="M443.75,415.7c27.83-20.45,81.77,11.49,54.54,102.26c-10.23,34.09,30.68,47.72,30.68,47.72
	s-64.77,20.45-71.58-40.91"/>
<path class="st0" d="M424.64,635.27h83.06c6.94,0,12.57-5.63,12.57-12.57v-14.37c0-11.68-1.73-21.48-5.37-29.65
	c-1.59-3.57-3.54-6.82-5.86-9.79"/>
<path class="st0" d="M122.03,484.39c5.82,21.09,22.32,42.18,41.77,42.18c19.53,0,36.08-21.26,41.84-42.43"/>
<path class="st0" d="M180.85,635.27h-81c-6.94,0-12.57-5.63-12.57-12.57v-14.37c0-35.82,16.3-53.93,53.83-61.83l22.7,15.77
	l22.7-15.77c7.14,1.5,13.51,3.38,19.14,5.67"/>
<line class="st0" x1="122.9" y1="592.46" x2="122.9" y2="635.27"/>
<path class="st0" d="M186.5,546.5c-5.65-4.69-5.65-25.14-5.65-25.14"/>
<path class="st0" d="M141.11,546.5c5.65-4.69,5.65-25.14,5.65-25.14"/>
<path class="st0" d="M165.12,406.48c-41.59,0-59.28,15.51-46.02,76.13c0.53,2.41,3.94,2.51,4.59,0.13
	c2.44-8.9,5.82-26.95,5.82-26.95c0.11-2.23,2.03-3.71,4.27-3.73c14.6-0.16,30.76-9.4,30.76-9.4c2.09-0.42,3.97,1.26,3.55,3.18
	l-6.07,16.29l27.03-14.29c2.57-1.35,5.84-0.79,7.7,1.33l7.18,33.29c0.62,2.4,4.07,2.34,4.6-0.09c13.18-60.42-4.26-75.89-45.79-75.89
	"/>
<path class="st1" d="M268.07,279.22c5.33,10.76,18.45,18.36,33.79,18.36c20.06,0,36.33-13.01,36.33-29.06
	c0-21.8-16.95-26.64-36.33-29.06c-25.09-3.14-36.33-13.01-36.33-29.06c0-16.05,16.26-29.06,36.33-29.06
	c14.93,0,27.76,7.2,33.34,17.51"/>
<line class="st1" x1="301.86" y1="164.38" x2="301.86" y2="314.53"/>
<path class="st1" d="M142.6,347.26c3.35,6.76,11.59,11.54,21.23,11.54c12.61,0,22.83-8.18,22.83-18.26
	c0-13.7-10.65-16.74-22.83-18.26c-15.76-1.97-22.83-8.18-22.83-18.26c0-10.08,10.22-18.26,22.83-18.26c9.38,0,17.44,4.53,20.95,11"
	/>
<line class="st1" x1="163.83" y1="275.1" x2="163.83" y2="369.45"/>
<path class="st1" d="M413.53,342.26c4.16,8.39,14.39,14.33,26.36,14.33c15.66,0,28.35-10.15,28.35-22.68
	c0-17.01-13.23-20.79-28.35-22.68c-19.58-2.45-28.35-10.15-28.35-22.68c0-12.52,12.69-22.68,28.35-22.68
	c11.65,0,21.66,5.62,26.02,13.66"/>
<line class="st1" x1="439.89" y1="252.65" x2="439.89" y2="369.82"/>
</svg>
